<svg width="51" height="51" viewBox="0 0 51 51" fill="none" xmlns="http://www.w3.org/2000/svg">
<path fill-rule="evenodd" clip-rule="evenodd" d="M9.48699 32.862C11.4796 30.8694 14.1821 29.75 17 29.75H34C36.8179 29.75 39.5204 30.8694 41.513 32.862C43.5056 34.8546 44.625 37.5571 44.625 40.375V44.625C44.625 45.7986 43.6736 46.75 42.5 46.75C41.3264 46.75 40.375 45.7986 40.375 44.625V40.375C40.375 38.6842 39.7034 37.0627 38.5078 35.8672C37.3123 34.6717 35.6908 34 34 34H17C15.3092 34 13.6877 34.6717 12.4922 35.8672C11.2966 37.0627 10.625 38.6842 10.625 40.375V44.625C10.625 45.7986 9.67361 46.75 8.5 46.75C7.32639 46.75 6.375 45.7986 6.375 44.625V40.375C6.375 37.5571 7.49442 34.8546 9.48699 32.862Z" fill="#676D75"/>
<path fill-rule="evenodd" clip-rule="evenodd" d="M25.5 8.5C21.9792 8.5 19.125 11.3542 19.125 14.875C19.125 18.3958 21.9792 21.25 25.5 21.25C29.0208 21.25 31.875 18.3958 31.875 14.875C31.875 11.3542 29.0208 8.5 25.5 8.5ZM14.875 14.875C14.875 9.00697 19.632 4.25 25.5 4.25C31.368 4.25 36.125 9.00697 36.125 14.875C36.125 20.743 31.368 25.5 25.5 25.5C19.632 25.5 14.875 20.743 14.875 14.875Z" fill="#676D75"/>
</svg>
