<svg width="51" height="51" viewBox="0 0 51 51" fill="none" xmlns="http://www.w3.org/2000/svg">
<path fill-rule="evenodd" clip-rule="evenodd" d="M24.1954 2.57263C24.9627 1.97579 26.0373 1.97579 26.8046 2.57263L45.9296 17.4476C46.4472 17.8502 46.75 18.4692 46.75 19.125V42.5C46.75 44.1908 46.0784 45.8123 44.8828 47.0078C43.6873 48.2034 42.0658 48.875 40.375 48.875H10.625C8.93424 48.875 7.31274 48.2034 6.11719 47.0078C4.92165 45.8123 4.25 44.1908 4.25 42.5V19.125C4.25 18.4692 4.55275 17.8502 5.07038 17.4476L24.1954 2.57263ZM8.5 20.1643V42.5C8.5 43.0636 8.72388 43.6041 9.1224 44.0026C9.52091 44.4011 10.0614 44.625 10.625 44.625H40.375C40.9386 44.625 41.4791 44.4011 41.8776 44.0026C42.2761 43.6041 42.5 43.0636 42.5 42.5V20.1643L25.5 6.94208L8.5 20.1643Z" fill="#676D75"/>
<path fill-rule="evenodd" clip-rule="evenodd" d="M17 25.5C17 24.3264 17.9514 23.375 19.125 23.375H31.875C33.0486 23.375 34 24.3264 34 25.5V46.75C34 47.9236 33.0486 48.875 31.875 48.875C30.7014 48.875 29.75 47.9236 29.75 46.75V27.625H21.25V46.75C21.25 47.9236 20.2986 48.875 19.125 48.875C17.9514 48.875 17 47.9236 17 46.75V25.5Z" fill="#676D75"/>
</svg>
