<svg width="51" height="51" viewBox="0 0 51 51" fill="none" xmlns="http://www.w3.org/2000/svg">
<path fill-rule="evenodd" clip-rule="evenodd" d="M23.375 8.5C15.1598 8.5 8.5 15.1598 8.5 23.375C8.5 31.5902 15.1598 38.25 23.375 38.25C31.5902 38.25 38.25 31.5902 38.25 23.375C38.25 15.1598 31.5902 8.5 23.375 8.5ZM4.25 23.375C4.25 12.8126 12.8126 4.25 23.375 4.25C33.9374 4.25 42.5 12.8126 42.5 23.375C42.5 33.9374 33.9374 42.5 23.375 42.5C12.8126 42.5 4.25 33.9374 4.25 23.375Z" fill="#676D75"/>
<path fill-rule="evenodd" clip-rule="evenodd" d="M33.8787 33.8786C34.7086 33.0488 36.0541 33.0488 36.8839 33.8786L46.1277 43.1224C46.9576 43.9523 46.9576 45.2977 46.1277 46.1276C45.2978 46.9575 43.9524 46.9575 43.1225 46.1276L33.8787 36.8839C33.0489 36.054 33.0489 34.7085 33.8787 33.8786Z" fill="#676D75"/>
</svg>
